<svg xmlns="http://www.w3.org/2000/svg" viewBox="0 0 64 64">
  <circle cx="32" cy="32" r="30" fill="#063d2f"/>
  <circle cx="32" cy="32" r="26" fill="none" stroke="#d7eadf" stroke-width="2.5"/>
  <path
    d="M22 48V17c0-2.2 3.2-2.2 3.2 0v27.8h12.3c2.1 0 2.1 3.2 0 3.2H22Z"
    fill="#f4fbf5"
  />
  <path
    d="M34 48V17.2c0-1 .8-1.8 1.8-1.8h7.5c6.4 0 10.8 4.1 10.8 10.2 0 6.2-4.5 10.4-10.9 10.4h-5.8v12c0 2.3-3.4 2.3-3.4 0Zm3.4-15.2h5.6c4.4 0 7.4-2.8 7.4-7.1 0-4.2-2.9-7-7.3-7h-5.7v13.9Z"
    fill="#f4fbf5"
  />
  <path
    d="M20.7 49.7c8.4-8.1 15.8-18.7 21.4-32.1"
    fill="none"
    stroke="#8fcf9f"
    stroke-width="2.4"
    stroke-linecap="round"
  />
  <path
    d="M41.9 18.4c-1.7 4.7-1.1 8.7 1.9 12.2"
    fill="none"
    stroke="#8fcf9f"
    stroke-width="2"
    stroke-linecap="round"
    opacity=".85"
  />
</svg>
